

 
http://www.imdb.com/title/tt2044729/


A graphic designer's enviable life slides into despair when his girlfriend breaks up with him. 



Director:
 Roman Coppola 

Writer:
 Roman Coppola 

Stars:
 Charlie Sheen, Jason Schwartzman, Bill Murray 

Genres:
  Comedy 

Country:
 USA 

Language:
 English | Russian | Spanish 



Format                                   : AVI
Format/Info                              : Audio Video Interleave
File size                                : 701 MiB
Duration                                 : 1h 25mn
Overall bit rate mode                    : Variable
Overall bit rate                         : 1 142 Kbps
Writing application                      : VirtualDubMod 1.5.10.2 (build 2540/release)
Writing library                          : VirtualDubMod build 2540/release

Video
ID                                       : 0
Format                                   : MPEG-4 Visual
Format profile                           : Advanced Simple@L5
Format settings, BVOP                    : 2
Format settings, QPel                    : No
Format settings, GMC                     : No warppoints
Format settings, Matrix                  : Default (H.263)
Codec ID                                 : XVID
Codec ID/Hint                            : XviD
Duration                                 : 1h 25mn
Bit rate                                 : 1 007 Kbps
Width                                    : 640 pixels
Height                                   : 352 pixels
Display aspect ratio                     : 16:9
Frame rate                               : 23.976 fps
Color space                              : YUV
Chroma subsampling                       : 4:2:0
Bit depth                                : 8 bits
Scan type                                : Progressive
Compression mode                         : Lossy
Bits/(Pixel*Frame)                       : 0.186
Stream size                              : 618 MiB (88%)
Writing library                          : XviD 61

Audio
ID                                       : 1
Format                                   : MPEG Audio
Format version                           : Version 1
Format profile                           : Layer 3
Mode                                     : Joint stereo
Mode extension                           : MS Stereo
Codec ID                                 : 55
Codec ID/Hint                            : MP3
Duration                                 : 1h 25mn
Bit rate mode                            : Variable
Bit rate                                 : 128 Kbps
Channel(s)                               : 2 channels
Sampling rate                            : 48.0 KHz
Compression mode                         : Lossy
Stream size                              : 75.0 MiB (11%)
Alignment                                : Aligned on interleaves
Interleave, duration                     : 24 ms (0.58 video frame)
Interleave, preload duration             : 150 ms
Writing library                          : LAME3.98 
Encoding settings                        : -m j -V 4 -q 2 -lowpass 17 --abr 128



 
http://addpix.net/viewer.php?file=31156945360707773217.jpg 
http://addpix.net/viewer.php?file=94556058252028543004.jpg 
http://addpix.net/viewer.php?file=02632122672612163227.jpg 
http://addpix.net/viewer.php?file=30581096681537636998.jpg 
http://addpix.net/viewer.php?file=31705061998686430964.jpg
